<svg class="main-svg" xmlns="http://www.w3.org/2000/svg" xmlns:xlink="http://www.w3.org/1999/xlink" width="700" height="500" viewBox="0 0 700 500"><rect x="0" y="0" width="700" height="500" style="fill: rgb(255, 255, 255); fill-opacity: 1;"/><defs id="defs-43c79c"><g class="clips"><clipPath id="clip43c79cxyplot" class="plotclip"><rect width="450" height="320"/></clipPath><clipPath class="axesclip" id="clip43c79cx"><rect x="80" y="0" width="450" height="500"/></clipPath><clipPath class="axesclip" id="clip43c79cy"><rect x="0" y="100" width="700" height="320"/></clipPath><clipPath class="axesclip" id="clip43c79cxy"><rect x="80" y="100" width="450" height="320"/></clipPath></g><g class="gradients"/></defs><g class="bglayer"><rect class="bg" x="80" y="100" width="450" height="320" style="fill: rgb(229, 236, 246); fill-opacity: 1; stroke-width: 0;"/></g><g class="layer-below"><g class="imagelayer"/><g class="shapelayer"/></g><g class="cartesianlayer"><g class="subplot xy"><g class="layer-subplot"><g class="shapelayer"/><g class="imagelayer"/></g><g class="gridlayer"><g class="x"><path class="xgrid crisp" transform="translate(88.18,0)" d="M0,100v320" style="stroke: rgb(255, 255, 255); stroke-opacity: 1; stroke-width: 1px;"/><path class="xgrid crisp" transform="translate(206.82,0)" d="M0,100v320" style="stroke: rgb(255, 255, 255); stroke-opacity: 1; stroke-width: 1px;"/><path class="xgrid crisp" transform="translate(333.64,0)" d="M0,100v320" style="stroke: rgb(255, 255, 255); stroke-opacity: 1; stroke-width: 1px;"/><path class="xgrid crisp" transform="translate(456.36,0)" d="M0,100v320" style="stroke: rgb(255, 255, 255); stroke-opacity: 1; stroke-width: 1px;"/></g><g class="y"><path class="ygrid crisp" transform="translate(0,404)" d="M80,0h450" style="stroke: rgb(255, 255, 255); stroke-opacity: 1; stroke-width: 1px;"/><path class="ygrid crisp" transform="translate(0,386.67)" d="M80,0h450" style="stroke: rgb(255, 255, 255); stroke-opacity: 1; stroke-width: 1px;"/><path class="ygrid crisp" transform="translate(0,363.75)" d="M80,0h450" style="stroke: rgb(255, 255, 255); stroke-opacity: 1; stroke-width: 1px;"/><path class="ygrid crisp" transform="translate(0,346.41999999999996)" d="M80,0h450" style="stroke: rgb(255, 255, 255); stroke-opacity: 1; stroke-width: 1px;"/><path class="ygrid crisp" transform="translate(0,329.08000000000004)" d="M80,0h450" style="stroke: rgb(255, 255, 255); stroke-opacity: 1; stroke-width: 1px;"/><path class="ygrid crisp" transform="translate(0,306.16999999999996)" d="M80,0h450" style="stroke: rgb(255, 255, 255); stroke-opacity: 1; stroke-width: 1px;"/><path class="ygrid crisp" transform="translate(0,288.83000000000004)" d="M80,0h450" style="stroke: rgb(255, 255, 255); stroke-opacity: 1; stroke-width: 1px;"/><path class="ygrid crisp" transform="translate(0,271.5)" d="M80,0h450" style="stroke: rgb(255, 255, 255); stroke-opacity: 1; stroke-width: 1px;"/><path class="ygrid crisp" transform="translate(0,248.58)" d="M80,0h450" style="stroke: rgb(255, 255, 255); stroke-opacity: 1; stroke-width: 1px;"/><path class="ygrid crisp" transform="translate(0,231.25)" d="M80,0h450" style="stroke: rgb(255, 255, 255); stroke-opacity: 1; stroke-width: 1px;"/><path class="ygrid crisp" transform="translate(0,213.91)" d="M80,0h450" style="stroke: rgb(255, 255, 255); stroke-opacity: 1; stroke-width: 1px;"/><path class="ygrid crisp" transform="translate(0,191)" d="M80,0h450" style="stroke: rgb(255, 255, 255); stroke-opacity: 1; stroke-width: 1px;"/><path class="ygrid crisp" transform="translate(0,173.66)" d="M80,0h450" style="stroke: rgb(255, 255, 255); stroke-opacity: 1; stroke-width: 1px;"/><path class="ygrid crisp" transform="translate(0,156.32999999999998)" d="M80,0h450" style="stroke: rgb(255, 255, 255); stroke-opacity: 1; stroke-width: 1px;"/><path class="ygrid crisp" transform="translate(0,133.42000000000002)" d="M80,0h450" style="stroke: rgb(255, 255, 255); stroke-opacity: 1; stroke-width: 1px;"/><path class="ygrid crisp" transform="translate(0,116.08)" d="M80,0h450" style="stroke: rgb(255, 255, 255); stroke-opacity: 1; stroke-width: 1px;"/></g></g><g class="zerolinelayer"/><path class="xlines-below"/><path class="ylines-below"/><g class="overlines-below"/><g class="xaxislayer-below"/><g class="yaxislayer-below"/><g class="overaxes-below"/><g class="plot" transform="translate(80, 100)" clip-path="url('#clip43c79cxyplot')"><g class="scatterlayer mlayer"><g class="trace scatter tracef2e97b" style="stroke-miterlimit: 2; opacity: 1;"><g class="fills"/><g class="errorbars"/><g class="lines"><path class="js-line" d="M0,304L4.09,304L8.18,286.67L12.27,276.53L16.36,276.53L126.82,276.53L130.91,263.75L135,259.19L139.09,220.67L143.18,218.94L147.27,218.12L151.36,215.81L155.45,212.38L159.55,208.25L163.64,202.46L167.73,201.61L171.82,196.36L175.91,194.1L180,193.19L184.09,186.45L188.18,185.56L192.27,180.96L196.36,178.53L200.45,175.12L204.55,168.78L212.73,156.8L216.82,152.18L225,143.77L229.09,140.38L233.18,139.33L237.27,133.63L241.36,130.66L245.45,125.65L249.55,122.89L253.64,116.08L257.73,113.07L261.82,107.87L274.09,94.88L278.18,92.08L286.36,87.01L290.45,83.45L302.73,75.34L306.82,71.71L315,67.57L319.09,65.55L327.27,61.73L331.36,59.45L355.91,49.19L360,47.77L388.64,37.28L392.73,35.12L433.64,21.05L437.73,19.94L450,16" style="vector-effect: non-scaling-stroke; fill: none; stroke: rgb(99, 110, 250); stroke-opacity: 1; stroke-width: 2px; opacity: 1;"/></g><g class="points"/><g class="text"/></g><g class="trace scatter trace1d7260" style="stroke-miterlimit: 2; opacity: 1;"><g class="fills"/><g class="errorbars"/><g class="lines"><path class="js-line" d="M4.09,6720L8.17218934094037,6720L8.18,304L12.27,304L12.488755744567365,6720L130.90216828428038,6720L130.91,286.67L135,304L139.09,226.7L143.18,286.67L147.27,304L151.36,276.53L155.45,263.75L159.55,255.34L163.64,241.86L167.73,286.67L171.82,238L175.91,255.34L180,276.53L184.09,222.52L188.18,269.33L192.27,225.59L196.36,238L200.45,226.7L204.55,206.17L208.64,201.61L212.73,195.37L216.82,196.7L220.91,192.6L229.09,192.03L233.18,218.94L237.27,173.45L241.36,185.34L245.45,168.33L249.55,179.37L253.64,151.95L257.73,167.46L261.82,149.71L265.91,147.36L270,148.33L274.09,140.03L278.18,148.19L282.27,149.34L286.36,144.4L290.45,133.99L294.55,137.85L298.64,133.39L302.73,133.75L306.82,121.73L315,136.03L319.09,129.42L323.18,132.35L327.27,124.23L331.36,120.45L335.45,124.14L339.55,121.34L343.64,126.09L347.73,117.23L351.82,122.11L355.91,117.8L360,120.21L364.09,118.36L368.18,115.53L372.27,119.17L376.36,118.85L384.55,104.05L388.64,106.3L392.73,97.37L396.82,106.6L400.91,99.49L405,100.72L413.18,101.57L417.27,95.28L421.36,99.19L425.45,99.74L433.64,96.79L437.73,98.26L441.82,91.37L445.91,90.4L450,93.27" style="vector-effect: non-scaling-stroke; fill: none; stroke: rgb(239, 85, 59); stroke-opacity: 1; stroke-width: 2px; opacity: 1;"/></g><g class="points"/><g class="text"/></g><g class="trace scatter tracebedff6" style="stroke-miterlimit: 2; opacity: 1;"><g class="fills"/><g class="errorbars"/><g class="lines"><path class="js-line" d="M0,6720L175.57406527257228,6720L175.91,304L180,286.67L188.18,286.67L192.27,276.53L196.36,276.53L200.45,269.33L208.64,269.33L212.73,255.34L216.82,255.34L220.91,249.05L225,246.42L229.09,236.28L237.27,230.36L241.36,221.58L253.64,211.13L257.73,204.71L265.91,196.03L270,193.49L274.09,186.22L278.18,183.45L282.27,178.86L286.36,175.71L294.55,166.73L298.64,163.72L302.73,159.43L306.82,157.29L315,152.94L319.09,151.11L339.55,141.95L343.64,140.67L355.91,136.03L360,134.28L372.27,129.44L376.36,127.71L388.64,123.03L392.73,119.76L405,115.38L409.09,114.15L417.27,111.46L421.36,110.5L437.73,105.93L441.82,104.86L450,102.45" style="vector-effect: non-scaling-stroke; fill: none; stroke: rgb(0, 204, 150); stroke-opacity: 1; stroke-width: 2px; opacity: 1;"/></g><g class="points"/><g class="text"/></g><g class="trace scatter trace495594" style="stroke-miterlimit: 2; opacity: 1;"><g class="fills"/><g class="errorbars"/><g class="lines"><path class="js-line" d="M0,6720L134.7410892718501,6720L135,276.53L139.09,276.53L175.91,276.53L180,246.42L184.09,239.85L188.18,239.85L192.27,238L196.36,238L200.45,229.08L204.55,225.59L208.64,225.59L212.73,224.52L216.82,224.52L220.91,211.75L229.09,208.8L233.18,198.85L241.36,189.85L245.45,188.34L253.64,179.71L257.73,177.71L261.82,176.61L265.91,169.92L270,163.53L274.09,159.82L278.18,157.29L282.27,153.49L286.36,149.71L290.45,147.8L294.55,141.91L298.64,137.95L306.82,126.9L310.91,123.85L319.09,117.01L323.18,113.73L327.27,110.4L331.36,105.13L335.45,101.7L339.55,96.83L351.82,89.97L355.91,86.8L364.09,82.49L368.18,79.89L380.45,73.79L384.55,71.54L388.64,69.61L392.73,66.8L437.73,46.06L441.82,42.98L450,39.52" style="vector-effect: non-scaling-stroke; fill: none; stroke: rgb(171, 99, 250); stroke-opacity: 1; stroke-width: 2px; opacity: 1;"/></g><g class="points"/><g class="text"/></g></g></g><g class="overplot"/><path class="xlines-above crisp" d="M0,0" style="fill: none;"/><path class="ylines-above crisp" d="M0,0" style="fill: none;"/><g class="overlines-above"/><g class="xaxislayer-above"><g class="xtick"><text text-anchor="middle" x="0" y="433" transform="translate(88.18,0)" style="font-family: 'Open Sans', verdana, arial, sans-serif; font-size: 12px; fill: rgb(42, 63, 95); fill-opacity: 1; white-space: pre;">Feb 2020</text></g><g class="xtick"><text text-anchor="middle" x="0" y="433" transform="translate(206.82,0)" style="font-family: 'Open Sans', verdana, arial, sans-serif; font-size: 12px; fill: rgb(42, 63, 95); fill-opacity: 1; white-space: pre;">Mar 2020</text></g><g class="xtick"><text text-anchor="middle" x="0" y="433" transform="translate(333.64,0)" style="font-family: 'Open Sans', verdana, arial, sans-serif; font-size: 12px; fill: rgb(42, 63, 95); fill-opacity: 1; white-space: pre;">Apr 2020</text></g><g class="xtick"><text text-anchor="middle" x="0" y="433" transform="translate(456.36,0)" style="font-family: 'Open Sans', verdana, arial, sans-serif; font-size: 12px; fill: rgb(42, 63, 95); fill-opacity: 1; white-space: pre;">May 2020</text></g></g><g class="yaxislayer-above"><g class="ytick"><text text-anchor="end" x="79" y="4.199999999999999" transform="translate(0,404)" style="font-family: 'Open Sans', verdana, arial, sans-serif; font-size: 12px; fill: rgb(42, 63, 95); fill-opacity: 1; white-space: pre;">1</text></g><g class="ytick"><text text-anchor="end" x="79" y="3.15" transform="translate(0,386.67)" style="font-family: 'Open Sans', verdana, arial, sans-serif; font-size: 9px; fill: rgb(42, 63, 95); fill-opacity: 1; white-space: pre;">2</text></g><g class="ytick"><text text-anchor="end" x="79" y="3.15" transform="translate(0,363.75)" style="font-family: 'Open Sans', verdana, arial, sans-serif; font-size: 9px; fill: rgb(42, 63, 95); fill-opacity: 1; white-space: pre;">5</text></g><g class="ytick"><text text-anchor="end" x="79" y="4.199999999999999" transform="translate(0,346.41999999999996)" style="font-family: 'Open Sans', verdana, arial, sans-serif; font-size: 12px; fill: rgb(42, 63, 95); fill-opacity: 1; white-space: pre;">10</text></g><g class="ytick"><text text-anchor="end" x="79" y="3.15" transform="translate(0,329.08000000000004)" style="font-family: 'Open Sans', verdana, arial, sans-serif; font-size: 9px; fill: rgb(42, 63, 95); fill-opacity: 1; white-space: pre;">2</text></g><g class="ytick"><text text-anchor="end" x="79" y="3.15" transform="translate(0,306.16999999999996)" style="font-family: 'Open Sans', verdana, arial, sans-serif; font-size: 9px; fill: rgb(42, 63, 95); fill-opacity: 1; white-space: pre;">5</text></g><g class="ytick"><text text-anchor="end" x="79" y="4.199999999999999" transform="translate(0,288.83000000000004)" style="font-family: 'Open Sans', verdana, arial, sans-serif; font-size: 12px; fill: rgb(42, 63, 95); fill-opacity: 1; white-space: pre;">100</text></g><g class="ytick"><text text-anchor="end" x="79" y="3.15" transform="translate(0,271.5)" style="font-family: 'Open Sans', verdana, arial, sans-serif; font-size: 9px; fill: rgb(42, 63, 95); fill-opacity: 1; white-space: pre;">2</text></g><g class="ytick"><text text-anchor="end" x="79" y="3.15" transform="translate(0,248.58)" style="font-family: 'Open Sans', verdana, arial, sans-serif; font-size: 9px; fill: rgb(42, 63, 95); fill-opacity: 1; white-space: pre;">5</text></g><g class="ytick"><text text-anchor="end" x="79" y="4.199999999999999" transform="translate(0,231.25)" style="font-family: 'Open Sans', verdana, arial, sans-serif; font-size: 12px; fill: rgb(42, 63, 95); fill-opacity: 1; white-space: pre;">1000</text></g><g class="ytick"><text text-anchor="end" x="79" y="3.15" transform="translate(0,213.91)" style="font-family: 'Open Sans', verdana, arial, sans-serif; font-size: 9px; fill: rgb(42, 63, 95); fill-opacity: 1; white-space: pre;">2</text></g><g class="ytick"><text text-anchor="end" x="79" y="3.15" transform="translate(0,191)" style="font-family: 'Open Sans', verdana, arial, sans-serif; font-size: 9px; fill: rgb(42, 63, 95); fill-opacity: 1; white-space: pre;">5</text></g><g class="ytick"><text text-anchor="end" x="79" y="4.199999999999999" transform="translate(0,173.66)" style="font-family: 'Open Sans', verdana, arial, sans-serif; font-size: 12px; fill: rgb(42, 63, 95); fill-opacity: 1; white-space: pre;">10k</text></g><g class="ytick"><text text-anchor="end" x="79" y="3.15" transform="translate(0,156.32999999999998)" style="font-family: 'Open Sans', verdana, arial, sans-serif; font-size: 9px; fill: rgb(42, 63, 95); fill-opacity: 1; white-space: pre;">2</text></g><g class="ytick"><text text-anchor="end" x="79" y="3.15" transform="translate(0,133.42000000000002)" style="font-family: 'Open Sans', verdana, arial, sans-serif; font-size: 9px; fill: rgb(42, 63, 95); fill-opacity: 1; white-space: pre;">5</text></g><g class="ytick"><text text-anchor="end" x="79" y="4.199999999999999" transform="translate(0,116.08)" style="font-family: 'Open Sans', verdana, arial, sans-serif; font-size: 12px; fill: rgb(42, 63, 95); fill-opacity: 1; white-space: pre;">100k</text></g></g><g class="overaxes-above"/></g></g><g class="polarlayer"/><g class="ternarylayer"/><g class="geolayer"/><g class="funnelarealayer"/><g class="pielayer"/><g class="treemaplayer"/><g class="sunburstlayer"/><g class="glimages"/><defs id="topdefs-43c79c"><g class="clips"/><clipPath id="legend43c79c"><rect width="149" height="86" x="0" y="0"/></clipPath></defs><g class="layer-above"><g class="imagelayer"/><g class="shapelayer"/></g><g class="infolayer"><g class="legend" pointer-events="all" transform="translate(539, 100)"><rect class="bg" shape-rendering="crispEdges" width="149" height="86" x="0" y="0" style="stroke: rgb(68, 68, 68); stroke-opacity: 1; fill: rgb(255, 255, 255); fill-opacity: 1; stroke-width: 0px;"/><g class="scrollbox" transform="translate(0, 0)" clip-path="url('#legend43c79c')"><g class="groups" transform="translate(0, 0)"><g class="traces" transform="translate(0, 14.5)" style="opacity: 1;"><text class="legendtext user-select-none" text-anchor="start" x="40" y="4.680000000000001" style="font-family: 'Open Sans', verdana, arial, sans-serif; font-size: 12px; fill: rgb(42, 63, 95); fill-opacity: 1; white-space: pre;">variable=confirmed</text><g class="layers" style="opacity: 1;"><g class="legendfill"/><g class="legendlines"><path class="js-line" d="M5,0h30" style="fill: none; stroke: rgb(99, 110, 250); stroke-opacity: 1; stroke-width: 2px;"/></g><g class="legendsymbols"><g class="legendpoints"/></g></g><rect class="legendtoggle" pointer-events="all" x="0" y="-9.5" width="143.390625" height="19" style="cursor: pointer; fill: rgb(0, 0, 0); fill-opacity: 0;"/></g></g><g class="groups" transform="translate(0, 0)"><g class="traces" transform="translate(0, 33.5)" style="opacity: 1;"><text class="legendtext user-select-none" text-anchor="start" x="40" y="4.680000000000001" style="font-family: 'Open Sans', verdana, arial, sans-serif; font-size: 12px; fill: rgb(42, 63, 95); fill-opacity: 1; white-space: pre;">variable=new_case</text><g class="layers" style="opacity: 1;"><g class="legendfill"/><g class="legendlines"><path class="js-line" d="M5,0h30" style="fill: none; stroke: rgb(239, 85, 59); stroke-opacity: 1; stroke-width: 2px;"/></g><g class="legendsymbols"><g class="legendpoints"/></g></g><rect class="legendtoggle" pointer-events="all" x="0" y="-9.5" width="143.390625" height="19" style="cursor: pointer; fill: rgb(0, 0, 0); fill-opacity: 0;"/></g></g><g class="groups" transform="translate(0, 0)"><g class="traces" transform="translate(0, 52.5)" style="opacity: 1;"><text class="legendtext user-select-none" text-anchor="start" x="40" y="4.680000000000001" style="font-family: 'Open Sans', verdana, arial, sans-serif; font-size: 12px; fill: rgb(42, 63, 95); fill-opacity: 1; white-space: pre;">variable=fatalities</text><g class="layers" style="opacity: 1;"><g class="legendfill"/><g class="legendlines"><path class="js-line" d="M5,0h30" style="fill: none; stroke: rgb(0, 204, 150); stroke-opacity: 1; stroke-width: 2px;"/></g><g class="legendsymbols"><g class="legendpoints"/></g></g><rect class="legendtoggle" pointer-events="all" x="0" y="-9.5" width="143.390625" height="19" style="cursor: pointer; fill: rgb(0, 0, 0); fill-opacity: 0;"/></g></g><g class="groups" transform="translate(0, 0)"><g class="traces" transform="translate(0, 71.5)" style="opacity: 1;"><text class="legendtext user-select-none" text-anchor="start" x="40" y="4.680000000000001" style="font-family: 'Open Sans', verdana, arial, sans-serif; font-size: 12px; fill: rgb(42, 63, 95); fill-opacity: 1; white-space: pre;">variable=recovered</text><g class="layers" style="opacity: 1;"><g class="legendfill"/><g class="legendlines"><path class="js-line" d="M5,0h30" style="fill: none; stroke: rgb(171, 99, 250); stroke-opacity: 1; stroke-width: 2px;"/></g><g class="legendsymbols"><g class="legendpoints"/></g></g><rect class="legendtoggle" pointer-events="all" x="0" y="-9.5" width="143.390625" height="19" style="cursor: pointer; fill: rgb(0, 0, 0); fill-opacity: 0;"/></g></g></g><rect class="scrollbar" rx="20" ry="3" width="0" height="0" x="0" y="0" style="fill: rgb(128, 139, 164); fill-opacity: 1;"/></g><g class="g-gtitle"><text class="gtitle" x="35" y="50" text-anchor="start" dy="0em" style="font-family: 'Open Sans', verdana, arial, sans-serif; font-size: 17px; fill: rgb(42, 63, 95); opacity: 1; font-weight: normal; white-space: pre;">Nationwide Confirmed Cases/Deaths/Recoveries Over Time (Log Scale)</text></g><g class="g-xtitle"><text class="xtitle" x="305" y="460.8" text-anchor="middle" style="font-family: 'Open Sans', verdana, arial, sans-serif; font-size: 14px; fill: rgb(42, 63, 95); opacity: 1; font-weight: normal; white-space: pre;">Time</text></g><g class="g-ytitle"><text class="ytitle" transform="rotate(-90,27.496875000000003,260)" x="27.496875000000003" y="260" text-anchor="middle" style="font-family: 'Open Sans', verdana, arial, sans-serif; font-size: 14px; fill: rgb(42, 63, 95); opacity: 1; font-weight: normal; white-space: pre;">log # cases</text></g></g></svg>